<svg width="313" height="56" viewBox="0 0 313 56" fill="none" xmlns="http://www.w3.org/2000/svg">
<path d="M41.4585 7.80664C41.1233 6.95333 39.92 6.95333 39.5848 7.80664L38.6881 10.0885C38.5858 10.349 38.3804 10.5552 38.1208 10.658L35.8473 11.5579C34.9971 11.8945 34.9971 13.1021 35.8473 13.4386L38.1208 14.3386C38.3804 14.4413 38.5858 14.6475 38.6881 14.9081L39.5848 17.1899C39.92 18.0432 41.1233 18.0432 41.4585 17.1899L42.3552 14.9081C42.4575 14.6475 42.6629 14.4413 42.9225 14.3386L45.196 13.4386C46.0462 13.1021 46.0462 11.8945 45.196 11.5579L42.9225 10.658C42.6629 10.5552 42.4575 10.349 42.3552 10.0885L41.4585 7.80664Z" fill="url(#paint0_linear_3_11)"/>
<path d="M33.4017 19.9368C33.0663 19.0835 31.8631 19.0835 31.5277 19.9368L31.2008 20.7688C31.0985 21.0293 30.8931 21.2355 30.6335 21.3383L29.8046 21.6664C28.9544 22.0029 28.9544 23.2106 29.8046 23.5471L30.6335 23.8752C30.8931 23.9779 31.0985 24.1842 31.2008 24.4448L31.5277 25.2767C31.8631 26.13 33.0663 26.13 33.4017 25.2767L33.7285 24.4448C33.8308 24.1842 34.0363 23.9779 34.2958 23.8752L35.1248 23.5471C35.975 23.2106 35.975 22.0029 35.1248 21.6664L34.2958 21.3383C34.0363 21.2355 33.8308 21.0293 33.7285 20.7688L33.4017 19.9368Z" fill="url(#paint1_linear_3_11)"/>
<path d="M25 48.8333C36.5059 48.8333 45.8334 39.5058 45.8334 28C45.8334 27.036 44.3886 26.8767 43.89 27.7017C41.5186 31.6262 37.2115 34.25 32.2917 34.25C24.8127 34.25 18.75 28.1873 18.75 20.7083C18.75 15.7884 21.3738 11.4813 25.2984 9.10991C26.1234 8.61139 25.964 7.16666 25 7.16666C13.4941 7.16666 4.16669 16.4941 4.16669 28C4.16669 39.5058 13.4941 48.8333 25 48.8333Z" fill="url(#paint2_linear_3_11)"/>
<path d="M60.625 8H67.375V38.1875L66.6953 44H60.625V8ZM83.4297 31.0625V31.5547C83.4297 33.4453 83.2266 35.1797 82.8203 36.7578C82.4297 38.3359 81.8203 39.7031 80.9922 40.8594C80.1641 42 79.1328 42.8906 77.8984 43.5312C76.6797 44.1562 75.2422 44.4688 73.5859 44.4688C72.0391 44.4688 70.6953 44.1562 69.5547 43.5312C68.4297 42.9062 67.4844 42.0234 66.7188 40.8828C65.9531 39.7422 65.3359 38.4062 64.8672 36.875C64.3984 35.3438 64.0469 33.6719 63.8125 31.8594V30.7812C64.0469 28.9688 64.3984 27.2969 64.8672 25.7656C65.3359 24.2344 65.9531 22.8984 66.7188 21.7578C67.4844 20.6172 68.4297 19.7344 69.5547 19.1094C70.6797 18.4844 72.0078 18.1719 73.5391 18.1719C75.2109 18.1719 76.6641 18.4922 77.8984 19.1328C79.1484 19.7578 80.1797 20.6484 80.9922 21.8047C81.8203 22.9453 82.4297 24.3047 82.8203 25.8828C83.2266 27.4453 83.4297 29.1719 83.4297 31.0625ZM76.6797 31.5547V31.0625C76.6797 30.0312 76.6016 29.0625 76.4453 28.1562C76.3047 27.2344 76.0547 26.4297 75.6953 25.7422C75.3359 25.0391 74.8438 24.4844 74.2188 24.0781C73.6094 23.6719 72.8203 23.4688 71.8516 23.4688C70.9297 23.4688 70.1484 23.625 69.5078 23.9375C68.8672 24.25 68.3359 24.6875 67.9141 25.25C67.5078 25.8125 67.2031 26.4844 67 27.2656C66.7969 28.0312 66.6719 28.875 66.625 29.7969V32.8672C66.6719 34.1016 66.875 35.1953 67.2344 36.1484C67.6094 37.0859 68.1719 37.8281 68.9219 38.375C69.6875 38.9062 70.6797 39.1719 71.8984 39.1719C72.8516 39.1719 73.6406 38.9844 74.2656 38.6094C74.8906 38.2344 75.375 37.7031 75.7188 37.0156C76.0781 36.3281 76.3281 35.5234 76.4688 34.6016C76.6094 33.6641 76.6797 32.6484 76.6797 31.5547ZM99.2969 44.4688C97.3281 44.4688 95.5625 44.1562 94 43.5312C92.4375 42.8906 91.1094 42.0078 90.0156 40.8828C88.9375 39.7578 88.1094 38.4531 87.5312 36.9688C86.9531 35.4688 86.6641 33.875 86.6641 32.1875V31.25C86.6641 29.3281 86.9375 27.5703 87.4844 25.9766C88.0312 24.3828 88.8125 23 89.8281 21.8281C90.8594 20.6562 92.1094 19.7578 93.5781 19.1328C95.0469 18.4922 96.7031 18.1719 98.5469 18.1719C100.344 18.1719 101.938 18.4688 103.328 19.0625C104.719 19.6562 105.883 20.5 106.82 21.5938C107.773 22.6875 108.492 24 108.977 25.5312C109.461 27.0469 109.703 28.7344 109.703 30.5938V33.4062H89.5469V28.9062H103.07V28.3906C103.07 27.4531 102.898 26.6172 102.555 25.8828C102.227 25.1328 101.727 24.5391 101.055 24.1016C100.383 23.6641 99.5234 23.4453 98.4766 23.4453C97.5859 23.4453 96.8203 23.6406 96.1797 24.0312C95.5391 24.4219 95.0156 24.9688 94.6094 25.6719C94.2188 26.375 93.9219 27.2031 93.7188 28.1562C93.5312 29.0938 93.4375 30.125 93.4375 31.25V32.1875C93.4375 33.2031 93.5781 34.1406 93.8594 35C94.1562 35.8594 94.5703 36.6016 95.1016 37.2266C95.6484 37.8516 96.3047 38.3359 97.0703 38.6797C97.8516 39.0234 98.7344 39.1953 99.7188 39.1953C100.938 39.1953 102.07 38.9609 103.117 38.4922C104.18 38.0078 105.094 37.2812 105.859 36.3125L109.141 39.875C108.609 40.6406 107.883 41.375 106.961 42.0781C106.055 42.7812 104.961 43.3594 103.68 43.8125C102.398 44.25 100.938 44.4688 99.2969 44.4688ZM127.234 38.2812V26.9844C127.234 26.1719 127.102 25.4766 126.836 24.8984C126.57 24.3047 126.156 23.8438 125.594 23.5156C125.047 23.1875 124.336 23.0234 123.461 23.0234C122.711 23.0234 122.062 23.1562 121.516 23.4219C120.969 23.6719 120.547 24.0391 120.25 24.5234C119.953 24.9922 119.805 25.5469 119.805 26.1875H113.055C113.055 25.1094 113.305 24.0859 113.805 23.1172C114.305 22.1484 115.031 21.2969 115.984 20.5625C116.938 19.8125 118.07 19.2266 119.383 18.8047C120.711 18.3828 122.195 18.1719 123.836 18.1719C125.805 18.1719 127.555 18.5 129.086 19.1562C130.617 19.8125 131.82 20.7969 132.695 22.1094C133.586 23.4219 134.031 25.0625 134.031 27.0312V37.8828C134.031 39.2734 134.117 40.4141 134.289 41.3047C134.461 42.1797 134.711 42.9453 135.039 43.6016V44H128.219C127.891 43.3125 127.641 42.4531 127.469 41.4219C127.312 40.375 127.234 39.3281 127.234 38.2812ZM128.125 28.5547L128.172 32.375H124.398C123.508 32.375 122.734 32.4766 122.078 32.6797C121.422 32.8828 120.883 33.1719 120.461 33.5469C120.039 33.9062 119.727 34.3281 119.523 34.8125C119.336 35.2969 119.242 35.8281 119.242 36.4062C119.242 36.9844 119.375 37.5078 119.641 37.9766C119.906 38.4297 120.289 38.7891 120.789 39.0547C121.289 39.3047 121.875 39.4297 122.547 39.4297C123.562 39.4297 124.445 39.2266 125.195 38.8203C125.945 38.4141 126.523 37.9141 126.93 37.3203C127.352 36.7266 127.57 36.1641 127.586 35.6328L129.367 38.4922C129.117 39.1328 128.773 39.7969 128.336 40.4844C127.914 41.1719 127.375 41.8203 126.719 42.4297C126.062 43.0234 125.273 43.5156 124.352 43.9062C123.43 44.2812 122.336 44.4688 121.07 44.4688C119.461 44.4688 118 44.1484 116.688 43.5078C115.391 42.8516 114.359 41.9531 113.594 40.8125C112.844 39.6562 112.469 38.3438 112.469 36.875C112.469 35.5469 112.719 34.3672 113.219 33.3359C113.719 32.3047 114.453 31.4375 115.422 30.7344C116.406 30.0156 117.633 29.4766 119.102 29.1172C120.57 28.7422 122.273 28.5547 124.211 28.5547H128.125ZM154.234 37.9297V18.6406H160.984V44H154.633L154.234 37.9297ZM154.984 32.7266L156.977 32.6797C156.977 34.3672 156.781 35.9375 156.391 37.3906C156 38.8281 155.414 40.0781 154.633 41.1406C153.852 42.1875 152.867 43.0078 151.68 43.6016C150.492 44.1797 149.094 44.4688 147.484 44.4688C146.25 44.4688 145.109 44.2969 144.062 43.9531C143.031 43.5938 142.141 43.0391 141.391 42.2891C140.656 41.5234 140.078 40.5469 139.656 39.3594C139.25 38.1562 139.047 36.7109 139.047 35.0234V18.6406H145.797V35.0703C145.797 35.8203 145.883 36.4531 146.055 36.9688C146.242 37.4844 146.5 37.9062 146.828 38.2344C147.156 38.5625 147.539 38.7969 147.977 38.9375C148.43 39.0781 148.93 39.1484 149.477 39.1484C150.867 39.1484 151.961 38.8672 152.758 38.3047C153.57 37.7422 154.141 36.9766 154.469 36.0078C154.812 35.0234 154.984 33.9297 154.984 32.7266ZM178.562 18.6406V23.4219H163.797V18.6406H178.562ZM167.453 12.3828H174.203V36.3594C174.203 37.0938 174.297 37.6562 174.484 38.0469C174.688 38.4375 174.984 38.7109 175.375 38.8672C175.766 39.0078 176.258 39.0781 176.852 39.0781C177.273 39.0781 177.648 39.0625 177.977 39.0312C178.32 38.9844 178.609 38.9375 178.844 38.8906L178.867 43.8594C178.289 44.0469 177.664 44.1953 176.992 44.3047C176.32 44.4141 175.578 44.4688 174.766 44.4688C173.281 44.4688 171.984 44.2266 170.875 43.7422C169.781 43.2422 168.938 42.4453 168.344 41.3516C167.75 40.2578 167.453 38.8203 167.453 37.0391V12.3828ZM189.93 41.1406L196.656 18.6406H203.898L193.703 47.8203C193.484 48.4609 193.188 49.1484 192.812 49.8828C192.453 50.6172 191.961 51.3125 191.336 51.9688C190.727 52.6406 189.953 53.1875 189.016 53.6094C188.094 54.0312 186.961 54.2422 185.617 54.2422C184.977 54.2422 184.453 54.2031 184.047 54.125C183.641 54.0469 183.156 53.9375 182.594 53.7969V48.8516C182.766 48.8516 182.945 48.8516 183.133 48.8516C183.32 48.8672 183.5 48.875 183.672 48.875C184.562 48.875 185.289 48.7734 185.852 48.5703C186.414 48.3672 186.867 48.0547 187.211 47.6328C187.555 47.2266 187.828 46.6953 188.031 46.0391L189.93 41.1406ZM187.117 18.6406L192.625 37.0156L193.586 44.1641L188.992 44.6562L179.875 18.6406H187.117Z" fill="#444648"/>
<path d="M214.234 24.0547V44H207.484V18.6406H213.812L214.234 24.0547ZM213.25 30.4297H211.422C211.422 28.5547 211.664 26.8672 212.148 25.3672C212.633 23.8516 213.312 22.5625 214.188 21.5C215.062 20.4219 216.102 19.6016 217.305 19.0391C218.523 18.4609 219.883 18.1719 221.383 18.1719C222.57 18.1719 223.656 18.3438 224.641 18.6875C225.625 19.0312 226.469 19.5781 227.172 20.3281C227.891 21.0781 228.438 22.0703 228.812 23.3047C229.203 24.5391 229.398 26.0469 229.398 27.8281V44H222.602V27.8047C222.602 26.6797 222.445 25.8047 222.133 25.1797C221.82 24.5547 221.359 24.1172 220.75 23.8672C220.156 23.6016 219.422 23.4688 218.547 23.4688C217.641 23.4688 216.852 23.6484 216.18 24.0078C215.523 24.3672 214.977 24.8672 214.539 25.5078C214.117 26.1328 213.797 26.8672 213.578 27.7109C213.359 28.5547 213.25 29.4609 213.25 30.4297ZM233.453 31.5781V31.0859C233.453 29.2266 233.719 27.5156 234.25 25.9531C234.781 24.375 235.555 23.0078 236.57 21.8516C237.586 20.6953 238.836 19.7969 240.32 19.1562C241.805 18.5 243.508 18.1719 245.43 18.1719C247.352 18.1719 249.062 18.5 250.562 19.1562C252.062 19.7969 253.32 20.6953 254.336 21.8516C255.367 23.0078 256.148 24.375 256.68 25.9531C257.211 27.5156 257.477 29.2266 257.477 31.0859V31.5781C257.477 33.4219 257.211 35.1328 256.68 36.7109C256.148 38.2734 255.367 39.6406 254.336 40.8125C253.32 41.9688 252.07 42.8672 250.586 43.5078C249.102 44.1484 247.398 44.4688 245.477 44.4688C243.555 44.4688 241.844 44.1484 240.344 43.5078C238.859 42.8672 237.602 41.9688 236.57 40.8125C235.555 39.6406 234.781 38.2734 234.25 36.7109C233.719 35.1328 233.453 33.4219 233.453 31.5781ZM240.203 31.0859V31.5781C240.203 32.6406 240.297 33.6328 240.484 34.5547C240.672 35.4766 240.969 36.2891 241.375 36.9922C241.797 37.6797 242.344 38.2188 243.016 38.6094C243.688 39 244.508 39.1953 245.477 39.1953C246.414 39.1953 247.219 39 247.891 38.6094C248.562 38.2188 249.102 37.6797 249.508 36.9922C249.914 36.2891 250.211 35.4766 250.398 34.5547C250.602 33.6328 250.703 32.6406 250.703 31.5781V31.0859C250.703 30.0547 250.602 29.0859 250.398 28.1797C250.211 27.2578 249.906 26.4453 249.484 25.7422C249.078 25.0234 248.539 24.4609 247.867 24.0547C247.195 23.6484 246.383 23.4453 245.43 23.4453C244.477 23.4453 243.664 23.6484 242.992 24.0547C242.336 24.4609 241.797 25.0234 241.375 25.7422C240.969 26.4453 240.672 27.2578 240.484 28.1797C240.297 29.0859 240.203 30.0547 240.203 31.0859ZM260.547 31.5781V31.0859C260.547 29.2266 260.812 27.5156 261.344 25.9531C261.875 24.375 262.648 23.0078 263.664 21.8516C264.68 20.6953 265.93 19.7969 267.414 19.1562C268.898 18.5 270.602 18.1719 272.523 18.1719C274.445 18.1719 276.156 18.5 277.656 19.1562C279.156 19.7969 280.414 20.6953 281.43 21.8516C282.461 23.0078 283.242 24.375 283.773 25.9531C284.305 27.5156 284.57 29.2266 284.57 31.0859V31.5781C284.57 33.4219 284.305 35.1328 283.773 36.7109C283.242 38.2734 282.461 39.6406 281.43 40.8125C280.414 41.9688 279.164 42.8672 277.68 43.5078C276.195 44.1484 274.492 44.4688 272.57 44.4688C270.648 44.4688 268.938 44.1484 267.438 43.5078C265.953 42.8672 264.695 41.9688 263.664 40.8125C262.648 39.6406 261.875 38.2734 261.344 36.7109C260.812 35.1328 260.547 33.4219 260.547 31.5781ZM267.297 31.0859V31.5781C267.297 32.6406 267.391 33.6328 267.578 34.5547C267.766 35.4766 268.062 36.2891 268.469 36.9922C268.891 37.6797 269.438 38.2188 270.109 38.6094C270.781 39 271.602 39.1953 272.57 39.1953C273.508 39.1953 274.312 39 274.984 38.6094C275.656 38.2188 276.195 37.6797 276.602 36.9922C277.008 36.2891 277.305 35.4766 277.492 34.5547C277.695 33.6328 277.797 32.6406 277.797 31.5781V31.0859C277.797 30.0547 277.695 29.0859 277.492 28.1797C277.305 27.2578 277 26.4453 276.578 25.7422C276.172 25.0234 275.633 24.4609 274.961 24.0547C274.289 23.6484 273.477 23.4453 272.523 23.4453C271.57 23.4453 270.758 23.6484 270.086 24.0547C269.43 24.4609 268.891 25.0234 268.469 25.7422C268.062 26.4453 267.766 27.2578 267.578 28.1797C267.391 29.0859 267.297 30.0547 267.297 31.0859ZM295.328 24.0547V44H288.578V18.6406H294.906L295.328 24.0547ZM294.344 30.4297H292.516C292.516 28.5547 292.758 26.8672 293.242 25.3672C293.727 23.8516 294.406 22.5625 295.281 21.5C296.156 20.4219 297.195 19.6016 298.398 19.0391C299.617 18.4609 300.977 18.1719 302.477 18.1719C303.664 18.1719 304.75 18.3438 305.734 18.6875C306.719 19.0312 307.562 19.5781 308.266 20.3281C308.984 21.0781 309.531 22.0703 309.906 23.3047C310.297 24.5391 310.492 26.0469 310.492 27.8281V44H303.695V27.8047C303.695 26.6797 303.539 25.8047 303.227 25.1797C302.914 24.5547 302.453 24.1172 301.844 23.8672C301.25 23.6016 300.516 23.4688 299.641 23.4688C298.734 23.4688 297.945 23.6484 297.273 24.0078C296.617 24.3672 296.07 24.8672 295.633 25.5078C295.211 26.1328 294.891 26.8672 294.672 27.7109C294.453 28.5547 294.344 29.4609 294.344 30.4297Z" fill="url(#paint3_linear_3_11)"/>
<defs>
<linearGradient id="paint0_linear_3_11" x1="40.5217" y1="7.16666" x2="40.5217" y2="17.8299" gradientUnits="userSpaceOnUse">
<stop stop-color="#FF6600"/>
<stop offset="1" stop-color="#8A33DA"/>
</linearGradient>
<linearGradient id="paint1_linear_3_11" x1="32.4647" y1="19.2968" x2="32.4647" y2="25.9167" gradientUnits="userSpaceOnUse">
<stop stop-color="#FF6600"/>
<stop offset="1" stop-color="#8A33DA"/>
</linearGradient>
<linearGradient id="paint2_linear_3_11" x1="6.5" y1="21" x2="46" y2="28" gradientUnits="userSpaceOnUse">
<stop stop-color="#FF6600"/>
<stop offset="1" stop-color="#8A33DA"/>
</linearGradient>
<linearGradient id="paint3_linear_3_11" x1="205" y1="32" x2="313" y2="32" gradientUnits="userSpaceOnUse">
<stop stop-color="#FF6600"/>
<stop offset="1" stop-color="#8A33DA"/>
</linearGradient>
</defs>
</svg>
