<svg width="438" height="174" viewBox="0 0 438 174" fill="none" xmlns="http://www.w3.org/2000/svg">
<g clip-path="url(#clip0_204_762)">
<g clip-path="url(#clip1_204_762)">
<rect y="42" width="438" height="132" rx="32" fill="#2D6A4F"/>
<path d="M392.939 84.9393C392.354 85.5251 392.354 86.4749 392.939 87.0607C393.525 87.6464 394.475 87.6464 395.061 87.0607L402 80.1213L408.939 87.0607C409.525 87.6465 410.475 87.6465 411.061 87.0607C411.646 86.4749 411.646 85.5251 411.061 84.9393L404.121 78L411.061 71.0607C411.646 70.4749 411.646 69.5251 411.061 68.9393C410.475 68.3536 409.525 68.3536 408.939 68.9393L402 75.8787L395.061 68.9393C394.475 68.3536 393.525 68.3536 392.939 68.9393C392.354 69.5251 392.354 70.4749 392.939 71.0607L399.879 78L392.939 84.9393Z" fill="white"/>
<circle cx="20.6075" cy="108.295" r="9.29547" fill="#004440"/>
<circle cx="80.0986" cy="146.717" r="3.71819" fill="#004440"/>
<path d="M79.4438 110.025C82.4971 117.548 78.8737 126.122 71.3507 129.175C70.5208 129.512 69.6781 129.768 68.8315 129.946C64.1204 130.937 58.8591 132.284 56.3382 136.386C53.3951 141.174 55.0036 147.393 59.3496 150.957C68.015 158.064 75.0268 167.432 79.3829 178.619C92.9059 213.348 75.7149 252.464 40.9856 265.987C6.25636 279.51 -32.8599 262.319 -46.3829 227.59C-59.9059 192.861 -42.7149 153.744 -7.98562 140.221C7.18342 134.315 23.1894 134.268 37.5341 138.982C42.7299 140.69 48.6536 139.072 51.5174 134.413L52.5823 132.68C54.694 129.244 53.7172 124.819 52.2006 121.082C49.1473 113.559 52.7707 104.985 60.2937 101.932C67.8167 98.8789 76.3906 102.502 79.4438 110.025Z" fill="#004440"/>
<path d="M145.174 87.7744C145.174 87.2764 145.096 86.8337 144.941 86.4463C144.798 86.0589 144.537 85.7048 144.161 85.3838C143.785 85.0628 143.254 84.7529 142.567 84.4541C141.892 84.1442 141.029 83.8288 139.978 83.5078C138.826 83.1536 137.764 82.7607 136.79 82.3291C135.827 81.8864 134.986 81.3773 134.267 80.8018C133.547 80.2152 132.988 79.5456 132.59 78.793C132.191 78.0293 131.992 77.1494 131.992 76.1533C131.992 75.1683 132.197 74.2718 132.606 73.4639C133.027 72.6559 133.619 71.9587 134.383 71.3721C135.158 70.7744 136.071 70.3151 137.122 69.9941C138.174 69.6621 139.336 69.4961 140.608 69.4961C142.401 69.4961 143.945 69.8281 145.24 70.4922C146.546 71.1562 147.548 72.0472 148.245 73.165C148.953 74.2829 149.308 75.5169 149.308 76.8672H145.174C145.174 76.0703 145.002 75.3675 144.659 74.7588C144.327 74.139 143.818 73.652 143.132 73.2979C142.457 72.9437 141.599 72.7666 140.559 72.7666C139.574 72.7666 138.755 72.916 138.102 73.2148C137.449 73.5137 136.962 73.9176 136.641 74.4268C136.32 74.9359 136.159 75.5114 136.159 76.1533C136.159 76.6071 136.264 77.0221 136.475 77.3984C136.685 77.7637 137.006 78.1068 137.438 78.4277C137.869 78.7376 138.411 79.0309 139.064 79.3076C139.717 79.5843 140.487 79.8499 141.372 80.1045C142.711 80.5029 143.879 80.9456 144.875 81.4326C145.871 81.9085 146.701 82.4508 147.365 83.0596C148.029 83.6683 148.527 84.36 148.859 85.1348C149.191 85.8984 149.357 86.7673 149.357 87.7412C149.357 88.7594 149.153 89.6781 148.743 90.4971C148.334 91.305 147.747 91.9967 146.983 92.5723C146.231 93.1367 145.323 93.5739 144.261 93.8838C143.209 94.1826 142.036 94.332 140.741 94.332C139.579 94.332 138.434 94.1771 137.305 93.8672C136.187 93.5573 135.169 93.0869 134.25 92.4561C133.331 91.8141 132.601 91.0173 132.059 90.0654C131.516 89.1025 131.245 87.9792 131.245 86.6953H135.412C135.412 87.4811 135.545 88.1507 135.811 88.7041C136.087 89.2575 136.469 89.7113 136.956 90.0654C137.443 90.4085 138.007 90.6631 138.649 90.8291C139.302 90.9951 140 91.0781 140.741 91.0781C141.715 91.0781 142.529 90.9398 143.182 90.6631C143.846 90.3864 144.344 89.999 144.676 89.501C145.008 89.0029 145.174 88.4274 145.174 87.7744ZM162.262 89.7666V76.0371H166.28V94H162.495L162.262 89.7666ZM162.827 86.0312L164.171 85.998C164.171 87.2044 164.039 88.3167 163.773 89.335C163.507 90.3421 163.098 91.222 162.544 91.9746C161.991 92.7161 161.283 93.2972 160.419 93.7178C159.556 94.1273 158.521 94.332 157.315 94.332C156.441 94.332 155.638 94.2048 154.908 93.9502C154.177 93.6956 153.546 93.3027 153.015 92.7715C152.495 92.2402 152.091 91.5485 151.803 90.6963C151.515 89.8441 151.372 88.8258 151.372 87.6416V76.0371H155.372V87.6748C155.372 88.3278 155.45 88.8757 155.605 89.3184C155.76 89.75 155.97 90.0986 156.236 90.3643C156.501 90.6299 156.811 90.818 157.165 90.9287C157.52 91.0394 157.896 91.0947 158.294 91.0947C159.434 91.0947 160.331 90.8734 160.984 90.4307C161.648 89.9769 162.118 89.3682 162.395 88.6045C162.683 87.8408 162.827 86.9831 162.827 86.0312ZM176.528 91.1445C177.181 91.1445 177.768 91.0173 178.288 90.7627C178.819 90.4971 179.245 90.1318 179.566 89.667C179.898 89.2021 180.081 88.6654 180.114 88.0566H183.883C183.861 89.2188 183.517 90.2757 182.853 91.2275C182.189 92.1794 181.309 92.9375 180.214 93.502C179.118 94.0553 177.906 94.332 176.578 94.332C175.206 94.332 174.01 94.0996 172.992 93.6348C171.974 93.1589 171.127 92.5059 170.452 91.6758C169.777 90.8457 169.268 89.8883 168.925 88.8037C168.593 87.7191 168.427 86.557 168.427 85.3174V84.7363C168.427 83.4967 168.593 82.3346 168.925 81.25C169.268 80.1543 169.777 79.1914 170.452 78.3613C171.127 77.5312 171.974 76.8838 172.992 76.4189C174.01 75.943 175.2 75.7051 176.561 75.7051C178 75.7051 179.262 75.9928 180.347 76.5684C181.431 77.1328 182.283 77.9242 182.903 78.9424C183.534 79.9495 183.861 81.1227 183.883 82.4619H180.114C180.081 81.7979 179.915 81.2002 179.616 80.6689C179.328 80.1266 178.919 79.695 178.388 79.374C177.867 79.0531 177.242 78.8926 176.512 78.8926C175.704 78.8926 175.034 79.0586 174.503 79.3906C173.972 79.7116 173.557 80.1543 173.258 80.7188C172.959 81.2721 172.743 81.8975 172.61 82.5947C172.488 83.2809 172.428 83.9948 172.428 84.7363V85.3174C172.428 86.0589 172.488 86.7783 172.61 87.4756C172.732 88.1729 172.942 88.7982 173.241 89.3516C173.551 89.8939 173.972 90.3311 174.503 90.6631C175.034 90.984 175.709 91.1445 176.528 91.1445ZM193.102 91.1445C193.755 91.1445 194.341 91.0173 194.862 90.7627C195.393 90.4971 195.819 90.1318 196.14 89.667C196.472 89.2021 196.655 88.6654 196.688 88.0566H200.456C200.434 89.2188 200.091 90.2757 199.427 91.2275C198.763 92.1794 197.883 92.9375 196.787 93.502C195.692 94.0553 194.48 94.332 193.152 94.332C191.779 94.332 190.584 94.0996 189.566 93.6348C188.548 93.1589 187.701 92.5059 187.026 91.6758C186.351 90.8457 185.841 89.8883 185.498 88.8037C185.166 87.7191 185 86.557 185 85.3174V84.7363C185 83.4967 185.166 82.3346 185.498 81.25C185.841 80.1543 186.351 79.1914 187.026 78.3613C187.701 77.5312 188.548 76.8838 189.566 76.4189C190.584 75.943 191.774 75.7051 193.135 75.7051C194.574 75.7051 195.836 75.9928 196.92 76.5684C198.005 77.1328 198.857 77.9242 199.477 78.9424C200.108 79.9495 200.434 81.1227 200.456 82.4619H196.688C196.655 81.7979 196.489 81.2002 196.19 80.6689C195.902 80.1266 195.493 79.695 194.961 79.374C194.441 79.0531 193.816 78.8926 193.085 78.8926C192.277 78.8926 191.608 79.0586 191.076 79.3906C190.545 79.7116 190.13 80.1543 189.831 80.7188C189.533 81.2721 189.317 81.8975 189.184 82.5947C189.062 83.2809 189.001 83.9948 189.001 84.7363V85.3174C189.001 86.0589 189.062 86.7783 189.184 87.4756C189.306 88.1729 189.516 88.7982 189.815 89.3516C190.125 89.8939 190.545 90.3311 191.076 90.6631C191.608 90.984 192.283 91.1445 193.102 91.1445ZM210.257 94.332C208.928 94.332 207.728 94.1162 206.654 93.6846C205.592 93.2419 204.684 92.6276 203.931 91.8418C203.19 91.056 202.62 90.1318 202.221 89.0693C201.823 88.0068 201.624 86.8613 201.624 85.6328V84.9688C201.624 83.5632 201.829 82.2904 202.238 81.1504C202.648 80.0104 203.218 79.0365 203.948 78.2285C204.678 77.4095 205.542 76.7842 206.538 76.3525C207.534 75.9209 208.613 75.7051 209.775 75.7051C211.059 75.7051 212.182 75.9209 213.145 76.3525C214.108 76.7842 214.905 77.3929 215.536 78.1787C216.178 78.9535 216.654 79.8776 216.964 80.9512C217.285 82.0247 217.445 83.209 217.445 84.5039V86.2139H203.566V83.3418H213.494V83.0264C213.472 82.307 213.328 81.6318 213.062 81.001C212.808 80.3701 212.415 79.861 211.884 79.4736C211.352 79.0863 210.644 78.8926 209.759 78.8926C209.094 78.8926 208.502 79.0365 207.982 79.3242C207.473 79.6009 207.047 80.0049 206.704 80.5361C206.361 81.0674 206.095 81.7093 205.907 82.4619C205.73 83.2035 205.641 84.0391 205.641 84.9688V85.6328C205.641 86.4186 205.747 87.1491 205.957 87.8242C206.178 88.4883 206.499 89.0693 206.92 89.5674C207.34 90.0654 207.849 90.4583 208.447 90.7461C209.045 91.0228 209.725 91.1611 210.489 91.1611C211.452 91.1611 212.31 90.9674 213.062 90.5801C213.815 90.1927 214.468 89.6449 215.021 88.9365L217.13 90.9785C216.742 91.543 216.239 92.0853 215.619 92.6055C214.999 93.1146 214.241 93.5296 213.344 93.8506C212.459 94.1715 211.43 94.332 210.257 94.332ZM229.453 89.1357C229.453 88.7373 229.354 88.3776 229.154 88.0566C228.955 87.7246 228.573 87.4258 228.009 87.1602C227.456 86.8945 226.637 86.651 225.552 86.4297C224.6 86.2194 223.726 85.9704 222.929 85.6826C222.143 85.3838 221.468 85.0241 220.904 84.6035C220.339 84.1829 219.902 83.6849 219.592 83.1094C219.282 82.5339 219.127 81.8698 219.127 81.1172C219.127 80.3867 219.288 79.695 219.609 79.042C219.93 78.389 220.389 77.8135 220.987 77.3154C221.584 76.8174 222.309 76.4245 223.161 76.1367C224.025 75.849 224.988 75.7051 226.05 75.7051C227.555 75.7051 228.845 75.9596 229.918 76.4688C231.003 76.9668 231.833 77.6475 232.408 78.5107C232.984 79.363 233.272 80.3258 233.272 81.3994H229.271C229.271 80.9235 229.149 80.4808 228.905 80.0713C228.673 79.6507 228.319 79.3132 227.843 79.0586C227.367 78.793 226.769 78.6602 226.05 78.6602C225.364 78.6602 224.794 78.7708 224.34 78.9922C223.897 79.2025 223.565 79.4792 223.344 79.8223C223.134 80.1654 223.029 80.5417 223.029 80.9512C223.029 81.25 223.084 81.5212 223.195 81.7646C223.316 81.9971 223.515 82.2129 223.792 82.4121C224.069 82.6003 224.445 82.7773 224.921 82.9434C225.408 83.1094 226.017 83.2699 226.747 83.4248C228.12 83.7126 229.298 84.0833 230.283 84.5371C231.279 84.9798 232.043 85.5553 232.574 86.2637C233.106 86.9609 233.371 87.8464 233.371 88.9199C233.371 89.7168 233.2 90.4473 232.857 91.1113C232.525 91.7643 232.038 92.3343 231.396 92.8213C230.754 93.2972 229.985 93.668 229.088 93.9336C228.203 94.1992 227.207 94.332 226.1 94.332C224.473 94.332 223.095 94.0443 221.966 93.4688C220.837 92.8822 219.979 92.1351 219.393 91.2275C218.817 90.3089 218.529 89.3571 218.529 88.3721H222.398C222.442 89.1136 222.647 89.7057 223.012 90.1484C223.388 90.5801 223.853 90.8955 224.406 91.0947C224.971 91.2829 225.552 91.377 226.15 91.377C226.869 91.377 227.472 91.2829 227.959 91.0947C228.446 90.8955 228.817 90.6299 229.071 90.2979C229.326 89.9548 229.453 89.5674 229.453 89.1357ZM245.761 89.1357C245.761 88.7373 245.662 88.3776 245.463 88.0566C245.263 87.7246 244.881 87.4258 244.317 87.1602C243.764 86.8945 242.945 86.651 241.86 86.4297C240.908 86.2194 240.034 85.9704 239.237 85.6826C238.451 85.3838 237.776 85.0241 237.212 84.6035C236.647 84.1829 236.21 83.6849 235.9 83.1094C235.59 82.5339 235.435 81.8698 235.435 81.1172C235.435 80.3867 235.596 79.695 235.917 79.042C236.238 78.389 236.697 77.8135 237.295 77.3154C237.892 76.8174 238.617 76.4245 239.469 76.1367C240.333 75.849 241.296 75.7051 242.358 75.7051C243.863 75.7051 245.153 75.9596 246.226 76.4688C247.311 76.9668 248.141 77.6475 248.716 78.5107C249.292 79.363 249.58 80.3258 249.58 81.3994H245.579C245.579 80.9235 245.457 80.4808 245.214 80.0713C244.981 79.6507 244.627 79.3132 244.151 79.0586C243.675 78.793 243.077 78.6602 242.358 78.6602C241.672 78.6602 241.102 78.7708 240.648 78.9922C240.205 79.2025 239.873 79.4792 239.652 79.8223C239.442 80.1654 239.337 80.5417 239.337 80.9512C239.337 81.25 239.392 81.5212 239.503 81.7646C239.624 81.9971 239.824 82.2129 240.1 82.4121C240.377 82.6003 240.753 82.7773 241.229 82.9434C241.716 83.1094 242.325 83.2699 243.055 83.4248C244.428 83.7126 245.606 84.0833 246.591 84.5371C247.588 84.9798 248.351 85.5553 248.882 86.2637C249.414 86.9609 249.679 87.8464 249.679 88.9199C249.679 89.7168 249.508 90.4473 249.165 91.1113C248.833 91.7643 248.346 92.3343 247.704 92.8213C247.062 93.2972 246.293 93.668 245.396 93.9336C244.511 94.1992 243.515 94.332 242.408 94.332C240.781 94.332 239.403 94.0443 238.274 93.4688C237.145 92.8822 236.287 92.1351 235.701 91.2275C235.125 90.3089 234.838 89.3571 234.838 88.3721H238.706C238.75 89.1136 238.955 89.7057 239.32 90.1484C239.696 90.5801 240.161 90.8955 240.714 91.0947C241.279 91.2829 241.86 91.377 242.458 91.377C243.177 91.377 243.78 91.2829 244.267 91.0947C244.754 90.8955 245.125 90.6299 245.38 90.2979C245.634 89.9548 245.761 89.5674 245.761 89.1357ZM256.607 69.8281L256.209 86.8779H252.789L252.374 69.8281H256.607ZM252.258 92.1074C252.258 91.4987 252.457 90.9896 252.856 90.5801C253.265 90.1595 253.83 89.9492 254.549 89.9492C255.257 89.9492 255.816 90.1595 256.226 90.5801C256.635 90.9896 256.84 91.4987 256.84 92.1074C256.84 92.694 256.635 93.1976 256.226 93.6182C255.816 94.0277 255.257 94.2324 254.549 94.2324C253.83 94.2324 253.265 94.0277 252.856 93.6182C252.457 93.1976 252.258 92.694 252.258 92.1074Z" fill="white"/>
<path d="M134.84 115.929L131.545 125H130.198L133.992 115.047H134.86L134.84 115.929ZM137.602 125L134.3 115.929L134.279 115.047H135.147L138.955 125H137.602ZM137.431 121.315V122.396H131.839V121.315H137.431ZM145.394 119.183V125H144.129V117.604H145.326L145.394 119.183ZM145.093 121.021L144.567 121.001C144.571 120.495 144.647 120.028 144.792 119.6C144.938 119.167 145.143 118.791 145.408 118.472C145.672 118.153 145.986 117.907 146.351 117.733C146.72 117.556 147.128 117.467 147.575 117.467C147.939 117.467 148.267 117.517 148.559 117.617C148.851 117.713 149.099 117.868 149.304 118.082C149.514 118.296 149.673 118.574 149.783 118.916C149.892 119.253 149.947 119.666 149.947 120.153V125H148.675V120.14C148.675 119.752 148.618 119.442 148.504 119.21C148.39 118.973 148.224 118.802 148.005 118.697C147.787 118.588 147.518 118.533 147.199 118.533C146.884 118.533 146.597 118.599 146.337 118.731C146.082 118.864 145.861 119.046 145.674 119.278C145.492 119.511 145.348 119.777 145.244 120.078C145.143 120.374 145.093 120.689 145.093 121.021ZM155.217 125.137C154.702 125.137 154.235 125.05 153.816 124.877C153.401 124.699 153.043 124.451 152.742 124.132C152.446 123.813 152.218 123.435 152.059 122.997C151.899 122.56 151.819 122.081 151.819 121.562V121.274C151.819 120.673 151.908 120.137 152.086 119.668C152.264 119.194 152.505 118.793 152.811 118.465C153.116 118.137 153.462 117.888 153.85 117.72C154.237 117.551 154.638 117.467 155.053 117.467C155.582 117.467 156.037 117.558 156.42 117.74C156.807 117.923 157.124 118.178 157.37 118.506C157.616 118.829 157.799 119.212 157.917 119.654C158.036 120.092 158.095 120.57 158.095 121.09V121.657H152.571V120.625H156.83V120.529C156.812 120.201 156.744 119.882 156.625 119.572C156.511 119.262 156.329 119.007 156.078 118.807C155.828 118.606 155.486 118.506 155.053 118.506C154.766 118.506 154.501 118.567 154.26 118.69C154.018 118.809 153.811 118.987 153.638 119.224C153.465 119.461 153.33 119.75 153.235 120.092C153.139 120.434 153.091 120.828 153.091 121.274V121.562C153.091 121.912 153.139 122.243 153.235 122.553C153.335 122.858 153.478 123.127 153.665 123.359C153.857 123.592 154.087 123.774 154.356 123.906C154.629 124.038 154.939 124.104 155.285 124.104C155.732 124.104 156.11 124.013 156.42 123.831C156.73 123.649 157.001 123.405 157.234 123.1L157.999 123.708C157.84 123.95 157.637 124.18 157.391 124.398C157.145 124.617 156.842 124.795 156.482 124.932C156.126 125.068 155.705 125.137 155.217 125.137ZM161.724 123.688L163.625 117.604H164.459L164.295 118.813L162.36 125H161.547L161.724 123.688ZM160.446 117.604L162.066 123.756L162.183 125H161.328L159.182 117.604H160.446ZM166.277 123.708L167.822 117.604H169.08L166.933 125H166.086L166.277 123.708ZM164.643 117.604L166.503 123.585L166.715 125H165.908L163.919 118.8L163.755 117.604H164.643ZM178.937 123.291V117.604H180.208V125H178.998L178.937 123.291ZM179.176 121.732L179.702 121.719C179.702 122.211 179.65 122.667 179.545 123.086C179.445 123.501 179.281 123.861 179.053 124.166C178.825 124.471 178.527 124.711 178.158 124.884C177.788 125.052 177.34 125.137 176.811 125.137C176.451 125.137 176.12 125.084 175.82 124.979C175.523 124.875 175.268 124.713 175.054 124.494C174.84 124.275 174.673 123.991 174.555 123.64C174.441 123.289 174.384 122.867 174.384 122.375V117.604H175.649V122.389C175.649 122.721 175.685 122.997 175.758 123.216C175.836 123.43 175.938 123.601 176.066 123.729C176.198 123.852 176.344 123.938 176.503 123.988C176.667 124.038 176.836 124.063 177.009 124.063C177.547 124.063 177.973 123.961 178.287 123.756C178.602 123.546 178.827 123.266 178.964 122.915C179.105 122.56 179.176 122.165 179.176 121.732ZM186.723 123.038C186.723 122.856 186.682 122.687 186.6 122.532C186.522 122.373 186.36 122.229 186.114 122.102C185.873 121.969 185.508 121.855 185.021 121.76C184.61 121.673 184.239 121.571 183.906 121.452C183.578 121.334 183.298 121.19 183.065 121.021C182.838 120.853 182.662 120.655 182.539 120.427C182.416 120.199 182.355 119.932 182.355 119.627C182.355 119.335 182.418 119.06 182.546 118.8C182.678 118.54 182.863 118.31 183.1 118.109C183.341 117.909 183.631 117.752 183.968 117.638C184.305 117.524 184.681 117.467 185.096 117.467C185.688 117.467 186.194 117.572 186.613 117.781C187.033 117.991 187.354 118.271 187.577 118.622C187.8 118.968 187.912 119.354 187.912 119.777H186.647C186.647 119.572 186.586 119.374 186.463 119.183C186.344 118.987 186.169 118.825 185.937 118.697C185.709 118.57 185.428 118.506 185.096 118.506C184.745 118.506 184.46 118.561 184.241 118.67C184.027 118.775 183.87 118.909 183.77 119.073C183.674 119.237 183.626 119.41 183.626 119.593C183.626 119.729 183.649 119.853 183.694 119.962C183.745 120.067 183.831 120.165 183.954 120.256C184.077 120.342 184.25 120.424 184.474 120.502C184.697 120.579 184.982 120.657 185.328 120.734C185.934 120.871 186.433 121.035 186.825 121.227C187.217 121.418 187.509 121.653 187.7 121.931C187.892 122.209 187.987 122.546 187.987 122.942C187.987 123.266 187.919 123.562 187.782 123.831C187.65 124.1 187.456 124.332 187.201 124.528C186.951 124.72 186.65 124.87 186.299 124.979C185.953 125.084 185.563 125.137 185.13 125.137C184.478 125.137 183.927 125.021 183.476 124.788C183.024 124.556 182.683 124.255 182.45 123.886C182.218 123.517 182.102 123.127 182.102 122.717H183.373C183.391 123.063 183.492 123.339 183.674 123.544C183.856 123.744 184.079 123.888 184.344 123.975C184.608 124.057 184.87 124.098 185.13 124.098C185.476 124.098 185.766 124.052 185.998 123.961C186.235 123.87 186.415 123.744 186.538 123.585C186.661 123.425 186.723 123.243 186.723 123.038ZM192.998 125.137C192.483 125.137 192.016 125.05 191.596 124.877C191.182 124.699 190.824 124.451 190.523 124.132C190.227 123.813 189.999 123.435 189.84 122.997C189.68 122.56 189.6 122.081 189.6 121.562V121.274C189.6 120.673 189.689 120.137 189.867 119.668C190.045 119.194 190.286 118.793 190.592 118.465C190.897 118.137 191.243 117.888 191.631 117.72C192.018 117.551 192.419 117.467 192.834 117.467C193.362 117.467 193.818 117.558 194.201 117.74C194.588 117.923 194.905 118.178 195.151 118.506C195.397 118.829 195.58 119.212 195.698 119.654C195.816 120.092 195.876 120.57 195.876 121.09V121.657H190.352V120.625H194.611V120.529C194.593 120.201 194.525 119.882 194.406 119.572C194.292 119.262 194.11 119.007 193.859 118.807C193.608 118.606 193.267 118.506 192.834 118.506C192.547 118.506 192.282 118.567 192.041 118.69C191.799 118.809 191.592 118.987 191.419 119.224C191.246 119.461 191.111 119.75 191.015 120.092C190.92 120.434 190.872 120.828 190.872 121.274V121.562C190.872 121.912 190.92 122.243 191.015 122.553C191.116 122.858 191.259 123.127 191.446 123.359C191.637 123.592 191.868 123.774 192.136 123.906C192.41 124.038 192.72 124.104 193.066 124.104C193.513 124.104 193.891 124.013 194.201 123.831C194.511 123.649 194.782 123.405 195.014 123.1L195.78 123.708C195.621 123.95 195.418 124.18 195.172 124.398C194.926 124.617 194.622 124.795 194.262 124.932C193.907 125.068 193.485 125.137 192.998 125.137ZM198.897 118.766V125H197.632V117.604H198.863L198.897 118.766ZM201.207 117.562L201.201 118.738C201.096 118.715 200.996 118.702 200.9 118.697C200.809 118.688 200.704 118.684 200.585 118.684C200.294 118.684 200.036 118.729 199.813 118.82C199.59 118.911 199.401 119.039 199.246 119.203C199.091 119.367 198.968 119.563 198.876 119.791C198.79 120.014 198.733 120.26 198.706 120.529L198.35 120.734C198.35 120.288 198.393 119.868 198.48 119.477C198.571 119.085 198.71 118.738 198.897 118.438C199.084 118.132 199.321 117.895 199.608 117.727C199.9 117.553 200.246 117.467 200.647 117.467C200.738 117.467 200.843 117.478 200.961 117.501C201.08 117.519 201.162 117.54 201.207 117.562ZM207.674 114.5V125H206.409V114.5H207.674ZM207.373 121.021L206.847 121.001C206.851 120.495 206.926 120.028 207.072 119.6C207.218 119.167 207.423 118.791 207.687 118.472C207.952 118.153 208.266 117.907 208.631 117.733C209 117.556 209.408 117.467 209.854 117.467C210.219 117.467 210.547 117.517 210.839 117.617C211.13 117.713 211.379 117.868 211.584 118.082C211.794 118.296 211.953 118.574 212.062 118.916C212.172 119.253 212.226 119.666 212.226 120.153V125H210.955V120.14C210.955 119.752 210.898 119.442 210.784 119.21C210.67 118.973 210.504 118.802 210.285 118.697C210.066 118.588 209.797 118.533 209.478 118.533C209.164 118.533 208.877 118.599 208.617 118.731C208.362 118.864 208.141 119.046 207.954 119.278C207.772 119.511 207.628 119.777 207.523 120.078C207.423 120.374 207.373 120.689 207.373 121.021ZM218.761 123.735V119.928C218.761 119.636 218.702 119.383 218.584 119.169C218.47 118.95 218.297 118.782 218.064 118.663C217.832 118.545 217.545 118.485 217.203 118.485C216.884 118.485 216.603 118.54 216.362 118.649C216.125 118.759 215.938 118.902 215.801 119.08C215.669 119.258 215.603 119.449 215.603 119.654H214.339C214.339 119.39 214.407 119.128 214.544 118.868C214.68 118.608 214.876 118.374 215.131 118.164C215.391 117.95 215.701 117.781 216.061 117.658C216.426 117.531 216.831 117.467 217.278 117.467C217.816 117.467 218.29 117.558 218.7 117.74C219.115 117.923 219.438 118.198 219.671 118.567C219.908 118.932 220.026 119.39 220.026 119.941V123.387C220.026 123.633 220.047 123.895 220.088 124.173C220.133 124.451 220.199 124.69 220.286 124.891V125H218.966C218.903 124.854 218.853 124.66 218.816 124.419C218.78 124.173 218.761 123.945 218.761 123.735ZM218.98 120.516L218.994 121.404H217.715C217.355 121.404 217.034 121.434 216.752 121.493C216.469 121.548 216.232 121.632 216.041 121.746C215.849 121.86 215.703 122.004 215.603 122.177C215.503 122.345 215.453 122.544 215.453 122.771C215.453 123.004 215.505 123.216 215.61 123.407C215.715 123.599 215.872 123.751 216.082 123.865C216.296 123.975 216.558 124.029 216.868 124.029C217.255 124.029 217.597 123.947 217.893 123.783C218.189 123.619 218.424 123.419 218.597 123.182C218.775 122.945 218.871 122.715 218.884 122.491L219.424 123.1C219.393 123.291 219.306 123.503 219.165 123.735C219.023 123.968 218.834 124.191 218.597 124.405C218.365 124.615 218.087 124.79 217.763 124.932C217.444 125.068 217.084 125.137 216.683 125.137C216.182 125.137 215.742 125.039 215.364 124.843C214.99 124.647 214.699 124.385 214.489 124.057C214.284 123.724 214.181 123.353 214.181 122.942C214.181 122.546 214.259 122.197 214.414 121.896C214.569 121.591 214.792 121.338 215.084 121.138C215.375 120.933 215.726 120.778 216.136 120.673C216.547 120.568 217.005 120.516 217.51 120.516H218.98ZM226.602 123.038C226.602 122.856 226.561 122.687 226.479 122.532C226.401 122.373 226.24 122.229 225.994 122.102C225.752 121.969 225.387 121.855 224.9 121.76C224.49 121.673 224.118 121.571 223.786 121.452C223.457 121.334 223.177 121.19 222.945 121.021C222.717 120.853 222.541 120.655 222.418 120.427C222.295 120.199 222.234 119.932 222.234 119.627C222.234 119.335 222.298 119.06 222.425 118.8C222.557 118.54 222.742 118.31 222.979 118.109C223.22 117.909 223.51 117.752 223.847 117.638C224.184 117.524 224.56 117.467 224.975 117.467C225.567 117.467 226.073 117.572 226.493 117.781C226.912 117.991 227.233 118.271 227.456 118.622C227.68 118.968 227.791 119.354 227.791 119.777H226.527C226.527 119.572 226.465 119.374 226.342 119.183C226.224 118.987 226.048 118.825 225.816 118.697C225.588 118.57 225.308 118.506 224.975 118.506C224.624 118.506 224.339 118.561 224.12 118.67C223.906 118.775 223.749 118.909 223.649 119.073C223.553 119.237 223.505 119.41 223.505 119.593C223.505 119.729 223.528 119.853 223.574 119.962C223.624 120.067 223.71 120.165 223.833 120.256C223.956 120.342 224.13 120.424 224.353 120.502C224.576 120.579 224.861 120.657 225.207 120.734C225.814 120.871 226.313 121.035 226.704 121.227C227.096 121.418 227.388 121.653 227.579 121.931C227.771 122.209 227.867 122.546 227.867 122.942C227.867 123.266 227.798 123.562 227.661 123.831C227.529 124.1 227.336 124.332 227.08 124.528C226.83 124.72 226.529 124.87 226.178 124.979C225.832 125.084 225.442 125.137 225.009 125.137C224.357 125.137 223.806 125.021 223.355 124.788C222.904 124.556 222.562 124.255 222.329 123.886C222.097 123.517 221.981 123.127 221.981 122.717H223.252C223.271 123.063 223.371 123.339 223.553 123.544C223.735 123.744 223.959 123.888 224.223 123.975C224.487 124.057 224.749 124.098 225.009 124.098C225.355 124.098 225.645 124.052 225.877 123.961C226.114 123.87 226.294 123.744 226.417 123.585C226.54 123.425 226.602 123.243 226.602 123.038ZM233.554 114.5H234.825V123.564L234.716 125H233.554V114.5ZM239.822 121.24V121.384C239.822 121.922 239.758 122.421 239.631 122.881C239.503 123.337 239.316 123.733 239.07 124.07C238.824 124.408 238.523 124.67 238.168 124.856C237.812 125.043 237.404 125.137 236.944 125.137C236.475 125.137 236.062 125.057 235.707 124.897C235.356 124.733 235.06 124.499 234.818 124.193C234.577 123.888 234.383 123.519 234.237 123.086C234.096 122.653 233.998 122.165 233.943 121.623V120.994C233.998 120.447 234.096 119.957 234.237 119.524C234.383 119.091 234.577 118.722 234.818 118.417C235.06 118.107 235.356 117.872 235.707 117.713C236.058 117.549 236.466 117.467 236.93 117.467C237.395 117.467 237.808 117.558 238.168 117.74C238.528 117.918 238.829 118.173 239.07 118.506C239.316 118.839 239.503 119.237 239.631 119.702C239.758 120.162 239.822 120.675 239.822 121.24ZM238.551 121.384V121.24C238.551 120.871 238.516 120.525 238.448 120.201C238.38 119.873 238.27 119.586 238.12 119.34C237.97 119.089 237.771 118.893 237.525 118.752C237.279 118.606 236.976 118.533 236.616 118.533C236.297 118.533 236.019 118.588 235.782 118.697C235.55 118.807 235.351 118.955 235.187 119.142C235.023 119.324 234.889 119.534 234.784 119.771C234.684 120.003 234.609 120.244 234.558 120.495V122.143C234.631 122.462 234.75 122.769 234.914 123.065C235.082 123.357 235.306 123.596 235.584 123.783C235.866 123.97 236.215 124.063 236.63 124.063C236.971 124.063 237.263 123.995 237.505 123.858C237.751 123.717 237.949 123.523 238.099 123.277C238.254 123.031 238.368 122.746 238.441 122.423C238.514 122.099 238.551 121.753 238.551 121.384ZM244.771 125.137C244.256 125.137 243.789 125.05 243.37 124.877C242.955 124.699 242.597 124.451 242.296 124.132C242 123.813 241.772 123.435 241.613 122.997C241.453 122.56 241.374 122.081 241.374 121.562V121.274C241.374 120.673 241.462 120.137 241.64 119.668C241.818 119.194 242.059 118.793 242.365 118.465C242.67 118.137 243.016 117.888 243.404 117.72C243.791 117.551 244.192 117.467 244.607 117.467C245.136 117.467 245.591 117.558 245.974 117.74C246.362 117.923 246.678 118.178 246.924 118.506C247.17 118.829 247.353 119.212 247.471 119.654C247.59 120.092 247.649 120.57 247.649 121.09V121.657H242.126V120.625H246.384V120.529C246.366 120.201 246.298 119.882 246.179 119.572C246.065 119.262 245.883 119.007 245.632 118.807C245.382 118.606 245.04 118.506 244.607 118.506C244.32 118.506 244.056 118.567 243.814 118.69C243.572 118.809 243.365 118.987 243.192 119.224C243.019 119.461 242.884 119.75 242.789 120.092C242.693 120.434 242.645 120.828 242.645 121.274V121.562C242.645 121.912 242.693 122.243 242.789 122.553C242.889 122.858 243.032 123.127 243.219 123.359C243.411 123.592 243.641 123.774 243.91 123.906C244.183 124.038 244.493 124.104 244.839 124.104C245.286 124.104 245.664 124.013 245.974 123.831C246.284 123.649 246.555 123.405 246.788 123.1L247.553 123.708C247.394 123.95 247.191 124.18 246.945 124.398C246.699 124.617 246.396 124.795 246.036 124.932C245.68 125.068 245.259 125.137 244.771 125.137ZM252.475 125.137C251.96 125.137 251.493 125.05 251.073 124.877C250.659 124.699 250.301 124.451 250 124.132C249.704 123.813 249.476 123.435 249.317 122.997C249.157 122.56 249.077 122.081 249.077 121.562V121.274C249.077 120.673 249.166 120.137 249.344 119.668C249.522 119.194 249.763 118.793 250.069 118.465C250.374 118.137 250.72 117.888 251.108 117.72C251.495 117.551 251.896 117.467 252.311 117.467C252.839 117.467 253.295 117.558 253.678 117.74C254.065 117.923 254.382 118.178 254.628 118.506C254.874 118.829 255.057 119.212 255.175 119.654C255.294 120.092 255.353 120.57 255.353 121.09V121.657H249.829V120.625H254.088V120.529C254.07 120.201 254.002 119.882 253.883 119.572C253.769 119.262 253.587 119.007 253.336 118.807C253.086 118.606 252.744 118.506 252.311 118.506C252.024 118.506 251.759 118.567 251.518 118.69C251.276 118.809 251.069 118.987 250.896 119.224C250.723 119.461 250.588 119.75 250.492 120.092C250.397 120.434 250.349 120.828 250.349 121.274V121.562C250.349 121.912 250.397 122.243 250.492 122.553C250.593 122.858 250.736 123.127 250.923 123.359C251.114 123.592 251.345 123.774 251.614 123.906C251.887 124.038 252.197 124.104 252.543 124.104C252.99 124.104 253.368 124.013 253.678 123.831C253.988 123.649 254.259 123.405 254.491 123.1L255.257 123.708C255.098 123.95 254.895 124.18 254.649 124.398C254.403 124.617 254.1 124.795 253.739 124.932C253.384 125.068 252.962 125.137 252.475 125.137ZM258.374 119.183V125H257.109V117.604H258.306L258.374 119.183ZM258.073 121.021L257.547 121.001C257.551 120.495 257.627 120.028 257.772 119.6C257.918 119.167 258.123 118.791 258.388 118.472C258.652 118.153 258.966 117.907 259.331 117.733C259.7 117.556 260.108 117.467 260.555 117.467C260.919 117.467 261.247 117.517 261.539 117.617C261.831 117.713 262.079 117.868 262.284 118.082C262.494 118.296 262.653 118.574 262.763 118.916C262.872 119.253 262.927 119.666 262.927 120.153V125H261.655V120.14C261.655 119.752 261.598 119.442 261.484 119.21C261.37 118.973 261.204 118.802 260.985 118.697C260.767 118.588 260.498 118.533 260.179 118.533C259.864 118.533 259.577 118.599 259.317 118.731C259.062 118.864 258.841 119.046 258.654 119.278C258.472 119.511 258.328 119.777 258.224 120.078C258.123 120.374 258.073 120.689 258.073 121.021ZM273.187 123.038C273.187 122.856 273.146 122.687 273.064 122.532C272.986 122.373 272.825 122.229 272.579 122.102C272.337 121.969 271.972 121.855 271.485 121.76C271.075 121.673 270.703 121.571 270.371 121.452C270.042 121.334 269.762 121.19 269.53 121.021C269.302 120.853 269.126 120.655 269.003 120.427C268.88 120.199 268.819 119.932 268.819 119.627C268.819 119.335 268.883 119.06 269.01 118.8C269.142 118.54 269.327 118.31 269.564 118.109C269.805 117.909 270.095 117.752 270.432 117.638C270.769 117.524 271.145 117.467 271.56 117.467C272.152 117.467 272.658 117.572 273.078 117.781C273.497 117.991 273.818 118.271 274.041 118.622C274.265 118.968 274.376 119.354 274.376 119.777H273.112C273.112 119.572 273.05 119.374 272.927 119.183C272.809 118.987 272.633 118.825 272.401 118.697C272.173 118.57 271.893 118.506 271.56 118.506C271.209 118.506 270.924 118.561 270.705 118.67C270.491 118.775 270.334 118.909 270.234 119.073C270.138 119.237 270.09 119.41 270.09 119.593C270.09 119.729 270.113 119.853 270.159 119.962C270.209 120.067 270.295 120.165 270.418 120.256C270.541 120.342 270.715 120.424 270.938 120.502C271.161 120.579 271.446 120.657 271.792 120.734C272.399 120.871 272.898 121.035 273.289 121.227C273.681 121.418 273.973 121.653 274.164 121.931C274.356 122.209 274.452 122.546 274.452 122.942C274.452 123.266 274.383 123.562 274.246 123.831C274.114 124.1 273.921 124.332 273.665 124.528C273.415 124.72 273.114 124.87 272.763 124.979C272.417 125.084 272.027 125.137 271.594 125.137C270.942 125.137 270.391 125.021 269.94 124.788C269.489 124.556 269.147 124.255 268.914 123.886C268.682 123.517 268.566 123.127 268.566 122.717H269.837C269.856 123.063 269.956 123.339 270.138 123.544C270.32 123.744 270.544 123.888 270.808 123.975C271.072 124.057 271.334 124.098 271.594 124.098C271.941 124.098 272.23 124.052 272.462 123.961C272.699 123.87 272.879 123.744 273.002 123.585C273.125 123.425 273.187 123.243 273.187 123.038ZM280.918 123.291V117.604H282.19V125H280.98L280.918 123.291ZM281.157 121.732L281.684 121.719C281.684 122.211 281.631 122.667 281.526 123.086C281.426 123.501 281.262 123.861 281.034 124.166C280.806 124.471 280.508 124.711 280.139 124.884C279.77 125.052 279.321 125.137 278.792 125.137C278.432 125.137 278.102 125.084 277.801 124.979C277.505 124.875 277.249 124.713 277.035 124.494C276.821 124.275 276.655 123.991 276.536 123.64C276.422 123.289 276.365 122.867 276.365 122.375V117.604H277.63V122.389C277.63 122.721 277.666 122.997 277.739 123.216C277.817 123.43 277.919 123.601 278.047 123.729C278.179 123.852 278.325 123.938 278.484 123.988C278.649 124.038 278.817 124.063 278.99 124.063C279.528 124.063 279.954 123.961 280.269 123.756C280.583 123.546 280.809 123.266 280.945 122.915C281.087 122.56 281.157 122.165 281.157 121.732ZM287.357 124.098C287.658 124.098 287.936 124.036 288.191 123.913C288.446 123.79 288.656 123.621 288.82 123.407C288.984 123.188 289.078 122.94 289.1 122.662H290.304C290.281 123.1 290.133 123.507 289.859 123.886C289.59 124.259 289.237 124.562 288.8 124.795C288.362 125.023 287.881 125.137 287.357 125.137C286.801 125.137 286.316 125.039 285.901 124.843C285.491 124.647 285.149 124.378 284.876 124.036C284.607 123.694 284.404 123.302 284.267 122.86C284.135 122.414 284.069 121.942 284.069 121.445V121.158C284.069 120.661 284.135 120.192 284.267 119.75C284.404 119.303 284.607 118.909 284.876 118.567C285.149 118.226 285.491 117.957 285.901 117.761C286.316 117.565 286.801 117.467 287.357 117.467C287.936 117.467 288.442 117.585 288.875 117.822C289.308 118.055 289.647 118.374 289.893 118.779C290.144 119.18 290.281 119.636 290.304 120.146H289.1C289.078 119.841 288.991 119.565 288.841 119.319C288.695 119.073 288.494 118.877 288.239 118.731C287.988 118.581 287.695 118.506 287.357 118.506C286.97 118.506 286.644 118.583 286.38 118.738C286.12 118.889 285.913 119.094 285.758 119.354C285.607 119.609 285.498 119.894 285.43 120.208C285.366 120.518 285.334 120.835 285.334 121.158V121.445C285.334 121.769 285.366 122.088 285.43 122.402C285.493 122.717 285.6 123.002 285.751 123.257C285.906 123.512 286.113 123.717 286.373 123.872C286.637 124.022 286.965 124.098 287.357 124.098ZM294.965 124.098C295.266 124.098 295.544 124.036 295.799 123.913C296.055 123.79 296.264 123.621 296.428 123.407C296.592 123.188 296.686 122.94 296.709 122.662H297.912C297.889 123.1 297.741 123.507 297.467 123.886C297.198 124.259 296.845 124.562 296.408 124.795C295.97 125.023 295.489 125.137 294.965 125.137C294.409 125.137 293.924 125.039 293.509 124.843C293.099 124.647 292.757 124.378 292.484 124.036C292.215 123.694 292.012 123.302 291.876 122.86C291.743 122.414 291.677 121.942 291.677 121.445V121.158C291.677 120.661 291.743 120.192 291.876 119.75C292.012 119.303 292.215 118.909 292.484 118.567C292.757 118.226 293.099 117.957 293.509 117.761C293.924 117.565 294.409 117.467 294.965 117.467C295.544 117.467 296.05 117.585 296.483 117.822C296.916 118.055 297.255 118.374 297.502 118.779C297.752 119.18 297.889 119.636 297.912 120.146H296.709C296.686 119.841 296.599 119.565 296.449 119.319C296.303 119.073 296.102 118.877 295.847 118.731C295.597 118.581 295.303 118.506 294.965 118.506C294.578 118.506 294.252 118.583 293.988 118.738C293.728 118.889 293.521 119.094 293.366 119.354C293.215 119.609 293.106 119.894 293.038 120.208C292.974 120.518 292.942 120.835 292.942 121.158V121.445C292.942 121.769 292.974 122.088 293.038 122.402C293.101 122.717 293.209 123.002 293.359 123.257C293.514 123.512 293.721 123.717 293.981 123.872C294.245 124.022 294.573 124.098 294.965 124.098ZM302.683 125.137C302.168 125.137 301.701 125.05 301.282 124.877C300.867 124.699 300.509 124.451 300.208 124.132C299.912 123.813 299.684 123.435 299.525 122.997C299.365 122.56 299.285 122.081 299.285 121.562V121.274C299.285 120.673 299.374 120.137 299.552 119.668C299.73 119.194 299.971 118.793 300.277 118.465C300.582 118.137 300.928 117.888 301.316 117.72C301.703 117.551 302.104 117.467 302.519 117.467C303.047 117.467 303.503 117.558 303.886 117.74C304.273 117.923 304.59 118.178 304.836 118.506C305.082 118.829 305.265 119.212 305.383 119.654C305.502 120.092 305.561 120.57 305.561 121.09V121.657H300.037V120.625H304.296V120.529C304.278 120.201 304.21 119.882 304.091 119.572C303.977 119.262 303.795 119.007 303.544 118.807C303.294 118.606 302.952 118.506 302.519 118.506C302.232 118.506 301.967 118.567 301.726 118.69C301.484 118.809 301.277 118.987 301.104 119.224C300.931 119.461 300.796 119.75 300.7 120.092C300.605 120.434 300.557 120.828 300.557 121.274V121.562C300.557 121.912 300.605 122.243 300.7 122.553C300.801 122.858 300.944 123.127 301.131 123.359C301.323 123.592 301.553 123.774 301.822 123.906C302.095 124.038 302.405 124.104 302.751 124.104C303.198 124.104 303.576 124.013 303.886 123.831C304.196 123.649 304.467 123.405 304.699 123.1L305.465 123.708C305.306 123.95 305.103 124.18 304.857 124.398C304.611 124.617 304.308 124.795 303.948 124.932C303.592 125.068 303.171 125.137 302.683 125.137ZM311.624 123.038C311.624 122.856 311.583 122.687 311.501 122.532C311.424 122.373 311.262 122.229 311.016 122.102C310.774 121.969 310.41 121.855 309.922 121.76C309.512 121.673 309.14 121.571 308.808 121.452C308.479 121.334 308.199 121.19 307.967 121.021C307.739 120.853 307.563 120.655 307.44 120.427C307.317 120.199 307.256 119.932 307.256 119.627C307.256 119.335 307.32 119.06 307.447 118.8C307.579 118.54 307.764 118.31 308.001 118.109C308.243 117.909 308.532 117.752 308.869 117.638C309.206 117.524 309.582 117.467 309.997 117.467C310.59 117.467 311.095 117.572 311.515 117.781C311.934 117.991 312.255 118.271 312.479 118.622C312.702 118.968 312.813 119.354 312.813 119.777H311.549C311.549 119.572 311.487 119.374 311.364 119.183C311.246 118.987 311.07 118.825 310.838 118.697C310.61 118.57 310.33 118.506 309.997 118.506C309.646 118.506 309.361 118.561 309.143 118.67C308.928 118.775 308.771 118.909 308.671 119.073C308.575 119.237 308.527 119.41 308.527 119.593C308.527 119.729 308.55 119.853 308.596 119.962C308.646 120.067 308.732 120.165 308.855 120.256C308.979 120.342 309.152 120.424 309.375 120.502C309.598 120.579 309.883 120.657 310.229 120.734C310.836 120.871 311.335 121.035 311.727 121.227C312.118 121.418 312.41 121.653 312.602 121.931C312.793 122.209 312.889 122.546 312.889 122.942C312.889 123.266 312.82 123.562 312.684 123.831C312.551 124.1 312.358 124.332 312.103 124.528C311.852 124.72 311.551 124.87 311.2 124.979C310.854 125.084 310.464 125.137 310.031 125.137C309.38 125.137 308.828 125.021 308.377 124.788C307.926 124.556 307.584 124.255 307.352 123.886C307.119 123.517 307.003 123.127 307.003 122.717H308.274C308.293 123.063 308.393 123.339 308.575 123.544C308.757 123.744 308.981 123.888 309.245 123.975C309.509 124.057 309.771 124.098 310.031 124.098C310.378 124.098 310.667 124.052 310.899 123.961C311.136 123.87 311.316 123.744 311.439 123.585C311.562 123.425 311.624 123.243 311.624 123.038ZM319.136 123.038C319.136 122.856 319.095 122.687 319.013 122.532C318.936 122.373 318.774 122.229 318.528 122.102C318.287 121.969 317.922 121.855 317.434 121.76C317.024 121.673 316.653 121.571 316.32 121.452C315.992 121.334 315.712 121.19 315.479 121.021C315.251 120.853 315.076 120.655 314.953 120.427C314.83 120.199 314.768 119.932 314.768 119.627C314.768 119.335 314.832 119.06 314.96 118.8C315.092 118.54 315.276 118.31 315.513 118.109C315.755 117.909 316.044 117.752 316.382 117.638C316.719 117.524 317.095 117.467 317.509 117.467C318.102 117.467 318.608 117.572 319.027 117.781C319.446 117.991 319.768 118.271 319.991 118.622C320.214 118.968 320.326 119.354 320.326 119.777H319.061C319.061 119.572 319 119.374 318.877 119.183C318.758 118.987 318.583 118.825 318.35 118.697C318.122 118.57 317.842 118.506 317.509 118.506C317.159 118.506 316.874 118.561 316.655 118.67C316.441 118.775 316.284 118.909 316.183 119.073C316.088 119.237 316.04 119.41 316.04 119.593C316.04 119.729 316.063 119.853 316.108 119.962C316.158 120.067 316.245 120.165 316.368 120.256C316.491 120.342 316.664 120.424 316.887 120.502C317.111 120.579 317.396 120.657 317.742 120.734C318.348 120.871 318.847 121.035 319.239 121.227C319.631 121.418 319.923 121.653 320.114 121.931C320.305 122.209 320.401 122.546 320.401 122.942C320.401 123.266 320.333 123.562 320.196 123.831C320.064 124.1 319.87 124.332 319.615 124.528C319.364 124.72 319.064 124.87 318.713 124.979C318.366 125.084 317.977 125.137 317.544 125.137C316.892 125.137 316.341 125.021 315.889 124.788C315.438 124.556 315.096 124.255 314.864 123.886C314.632 123.517 314.515 123.127 314.515 122.717H315.787C315.805 123.063 315.905 123.339 316.088 123.544C316.27 123.744 316.493 123.888 316.758 123.975C317.022 124.057 317.284 124.098 317.544 124.098C317.89 124.098 318.179 124.052 318.412 123.961C318.649 123.87 318.829 123.744 318.952 123.585C319.075 123.425 319.136 123.243 319.136 123.038ZM324.229 125H322.964V116.824C322.964 116.291 323.06 115.842 323.251 115.478C323.447 115.108 323.728 114.83 324.092 114.644C324.457 114.452 324.89 114.356 325.391 114.356C325.537 114.356 325.683 114.366 325.829 114.384C325.979 114.402 326.125 114.429 326.266 114.466L326.198 115.498C326.102 115.475 325.993 115.459 325.87 115.45C325.751 115.441 325.633 115.437 325.514 115.437C325.245 115.437 325.013 115.491 324.817 115.601C324.625 115.705 324.48 115.86 324.379 116.065C324.279 116.271 324.229 116.523 324.229 116.824V125ZM325.801 117.604V118.574H321.795V117.604H325.801ZM332.015 123.291V117.604H333.286V125H332.076L332.015 123.291ZM332.254 121.732L332.78 121.719C332.78 122.211 332.728 122.667 332.623 123.086C332.523 123.501 332.359 123.861 332.131 124.166C331.903 124.471 331.605 124.711 331.236 124.884C330.866 125.052 330.417 125.137 329.889 125.137C329.529 125.137 329.198 125.084 328.898 124.979C328.601 124.875 328.346 124.713 328.132 124.494C327.918 124.275 327.751 123.991 327.633 123.64C327.519 123.289 327.462 122.867 327.462 122.375V117.604H328.727V122.389C328.727 122.721 328.763 122.997 328.836 123.216C328.914 123.43 329.016 123.601 329.144 123.729C329.276 123.852 329.422 123.938 329.581 123.988C329.745 124.038 329.914 124.063 330.087 124.063C330.625 124.063 331.051 123.961 331.365 123.756C331.68 123.546 331.905 123.266 332.042 122.915C332.183 122.56 332.254 122.165 332.254 121.732ZM336.868 114.5V125H335.597V114.5H336.868ZM340.552 114.5V125H339.281V114.5H340.552ZM344.941 124.234L346.998 117.604H348.352L345.385 126.142C345.317 126.324 345.226 126.52 345.112 126.729C345.002 126.944 344.861 127.146 344.688 127.338C344.515 127.529 344.305 127.684 344.059 127.803C343.817 127.926 343.528 127.987 343.191 127.987C343.09 127.987 342.963 127.974 342.808 127.946C342.653 127.919 342.544 127.896 342.48 127.878L342.473 126.853C342.509 126.857 342.566 126.862 342.644 126.866C342.726 126.875 342.783 126.88 342.815 126.88C343.102 126.88 343.346 126.841 343.546 126.764C343.747 126.691 343.915 126.565 344.052 126.388C344.193 126.215 344.314 125.975 344.414 125.67L344.941 124.234ZM343.43 117.604L345.351 123.346L345.679 124.679L344.77 125.144L342.049 117.604H343.43ZM135.325 141.735V137.928C135.325 137.636 135.266 137.383 135.147 137.169C135.034 136.95 134.86 136.782 134.628 136.663C134.396 136.545 134.108 136.485 133.767 136.485C133.448 136.485 133.167 136.54 132.926 136.649C132.689 136.759 132.502 136.902 132.365 137.08C132.233 137.258 132.167 137.449 132.167 137.654H130.902C130.902 137.39 130.971 137.128 131.107 136.868C131.244 136.608 131.44 136.374 131.695 136.164C131.955 135.95 132.265 135.781 132.625 135.658C132.99 135.531 133.395 135.467 133.842 135.467C134.38 135.467 134.854 135.558 135.264 135.74C135.678 135.923 136.002 136.198 136.234 136.567C136.471 136.932 136.59 137.39 136.59 137.941V141.387C136.59 141.633 136.61 141.895 136.651 142.173C136.697 142.451 136.763 142.69 136.85 142.891V143H135.53C135.466 142.854 135.416 142.66 135.38 142.419C135.343 142.173 135.325 141.945 135.325 141.735ZM135.544 138.516L135.558 139.404H134.279C133.919 139.404 133.598 139.434 133.315 139.493C133.033 139.548 132.796 139.632 132.604 139.746C132.413 139.86 132.267 140.004 132.167 140.177C132.067 140.345 132.017 140.544 132.017 140.771C132.017 141.004 132.069 141.216 132.174 141.407C132.279 141.599 132.436 141.751 132.646 141.865C132.86 141.975 133.122 142.029 133.432 142.029C133.819 142.029 134.161 141.947 134.457 141.783C134.753 141.619 134.988 141.419 135.161 141.182C135.339 140.945 135.435 140.715 135.448 140.491L135.988 141.1C135.956 141.291 135.87 141.503 135.729 141.735C135.587 141.968 135.398 142.191 135.161 142.405C134.929 142.615 134.651 142.79 134.327 142.932C134.008 143.068 133.648 143.137 133.247 143.137C132.746 143.137 132.306 143.039 131.928 142.843C131.554 142.647 131.262 142.385 131.053 142.057C130.848 141.724 130.745 141.353 130.745 140.942C130.745 140.546 130.823 140.197 130.978 139.896C131.132 139.591 131.356 139.338 131.647 139.138C131.939 138.933 132.29 138.778 132.7 138.673C133.11 138.568 133.568 138.516 134.074 138.516H135.544ZM143.521 141.564V132.5H144.793V143H143.631L143.521 141.564ZM138.545 139.384V139.24C138.545 138.675 138.613 138.162 138.75 137.702C138.891 137.237 139.089 136.839 139.344 136.506C139.604 136.173 139.912 135.918 140.267 135.74C140.627 135.558 141.028 135.467 141.47 135.467C141.935 135.467 142.341 135.549 142.687 135.713C143.038 135.872 143.334 136.107 143.576 136.417C143.822 136.722 144.016 137.091 144.157 137.524C144.298 137.957 144.396 138.447 144.451 138.994V139.623C144.401 140.165 144.303 140.653 144.157 141.086C144.016 141.519 143.822 141.888 143.576 142.193C143.334 142.499 143.038 142.733 142.687 142.897C142.336 143.057 141.926 143.137 141.457 143.137C141.024 143.137 140.627 143.043 140.267 142.856C139.912 142.67 139.604 142.408 139.344 142.07C139.089 141.733 138.891 141.337 138.75 140.881C138.613 140.421 138.545 139.922 138.545 139.384ZM139.816 139.24V139.384C139.816 139.753 139.853 140.099 139.926 140.423C140.003 140.746 140.121 141.031 140.281 141.277C140.44 141.523 140.643 141.717 140.889 141.858C141.135 141.995 141.429 142.063 141.771 142.063C142.19 142.063 142.535 141.975 142.803 141.797C143.077 141.619 143.296 141.384 143.46 141.093C143.624 140.801 143.751 140.484 143.843 140.143V138.495C143.788 138.244 143.708 138.003 143.603 137.771C143.503 137.534 143.371 137.324 143.207 137.142C143.047 136.955 142.849 136.807 142.612 136.697C142.38 136.588 142.104 136.533 141.785 136.533C141.439 136.533 141.14 136.606 140.889 136.752C140.643 136.893 140.44 137.089 140.281 137.34C140.121 137.586 140.003 137.873 139.926 138.201C139.853 138.525 139.816 138.871 139.816 139.24ZM151.704 141.564V132.5H152.975V143H151.813L151.704 141.564ZM146.727 139.384V139.24C146.727 138.675 146.795 138.162 146.932 137.702C147.073 137.237 147.272 136.839 147.527 136.506C147.787 136.173 148.094 135.918 148.45 135.74C148.81 135.558 149.211 135.467 149.653 135.467C150.118 135.467 150.523 135.549 150.87 135.713C151.22 135.872 151.517 136.107 151.758 136.417C152.004 136.722 152.198 137.091 152.339 137.524C152.481 137.957 152.579 138.447 152.633 138.994V139.623C152.583 140.165 152.485 140.653 152.339 141.086C152.198 141.519 152.004 141.888 151.758 142.193C151.517 142.499 151.22 142.733 150.87 142.897C150.519 143.057 150.109 143.137 149.639 143.137C149.206 143.137 148.81 143.043 148.45 142.856C148.094 142.67 147.787 142.408 147.527 142.07C147.272 141.733 147.073 141.337 146.932 140.881C146.795 140.421 146.727 139.922 146.727 139.384ZM147.998 139.24V139.384C147.998 139.753 148.035 140.099 148.108 140.423C148.185 140.746 148.304 141.031 148.463 141.277C148.623 141.523 148.826 141.717 149.072 141.858C149.318 141.995 149.612 142.063 149.954 142.063C150.373 142.063 150.717 141.975 150.986 141.797C151.259 141.619 151.478 141.384 151.642 141.093C151.806 140.801 151.934 140.484 152.025 140.143V138.495C151.97 138.244 151.89 138.003 151.786 137.771C151.685 137.534 151.553 137.324 151.389 137.142C151.23 136.955 151.031 136.807 150.794 136.697C150.562 136.588 150.286 136.533 149.967 136.533C149.621 136.533 149.322 136.606 149.072 136.752C148.826 136.893 148.623 137.089 148.463 137.34C148.304 137.586 148.185 137.873 148.108 138.201C148.035 138.525 147.998 138.871 147.998 139.24ZM158.293 143.137C157.778 143.137 157.311 143.05 156.892 142.877C156.477 142.699 156.119 142.451 155.819 142.132C155.522 141.813 155.294 141.435 155.135 140.997C154.975 140.56 154.896 140.081 154.896 139.562V139.274C154.896 138.673 154.985 138.137 155.162 137.668C155.34 137.194 155.582 136.793 155.887 136.465C156.192 136.137 156.539 135.888 156.926 135.72C157.313 135.551 157.714 135.467 158.129 135.467C158.658 135.467 159.113 135.558 159.496 135.74C159.884 135.923 160.2 136.178 160.446 136.506C160.693 136.829 160.875 137.212 160.993 137.654C161.112 138.092 161.171 138.57 161.171 139.09V139.657H155.648V138.625H159.906V138.529C159.888 138.201 159.82 137.882 159.701 137.572C159.587 137.262 159.405 137.007 159.154 136.807C158.904 136.606 158.562 136.506 158.129 136.506C157.842 136.506 157.578 136.567 157.336 136.69C157.095 136.809 156.887 136.987 156.714 137.224C156.541 137.461 156.406 137.75 156.311 138.092C156.215 138.434 156.167 138.828 156.167 139.274V139.562C156.167 139.912 156.215 140.243 156.311 140.553C156.411 140.858 156.555 141.127 156.741 141.359C156.933 141.592 157.163 141.774 157.432 141.906C157.705 142.038 158.015 142.104 158.361 142.104C158.808 142.104 159.186 142.013 159.496 141.831C159.806 141.649 160.077 141.405 160.31 141.1L161.075 141.708C160.916 141.95 160.713 142.18 160.467 142.398C160.221 142.617 159.918 142.795 159.558 142.932C159.202 143.068 158.781 143.137 158.293 143.137ZM167.59 141.564V132.5H168.861V143H167.699L167.59 141.564ZM162.613 139.384V139.24C162.613 138.675 162.682 138.162 162.818 137.702C162.96 137.237 163.158 136.839 163.413 136.506C163.673 136.173 163.98 135.918 164.336 135.74C164.696 135.558 165.097 135.467 165.539 135.467C166.004 135.467 166.409 135.549 166.756 135.713C167.107 135.872 167.403 136.107 167.644 136.417C167.891 136.722 168.084 137.091 168.225 137.524C168.367 137.957 168.465 138.447 168.519 138.994V139.623C168.469 140.165 168.371 140.653 168.225 141.086C168.084 141.519 167.891 141.888 167.644 142.193C167.403 142.499 167.107 142.733 166.756 142.897C166.405 143.057 165.995 143.137 165.525 143.137C165.092 143.137 164.696 143.043 164.336 142.856C163.98 142.67 163.673 142.408 163.413 142.07C163.158 141.733 162.96 141.337 162.818 140.881C162.682 140.421 162.613 139.922 162.613 139.384ZM163.885 139.24V139.384C163.885 139.753 163.921 140.099 163.994 140.423C164.071 140.746 164.19 141.031 164.349 141.277C164.509 141.523 164.712 141.717 164.958 141.858C165.204 141.995 165.498 142.063 165.84 142.063C166.259 142.063 166.603 141.975 166.872 141.797C167.145 141.619 167.364 141.384 167.528 141.093C167.692 140.801 167.82 140.484 167.911 140.143V138.495C167.856 138.244 167.777 138.003 167.672 137.771C167.571 137.534 167.439 137.324 167.275 137.142C167.116 136.955 166.918 136.807 166.681 136.697C166.448 136.588 166.172 136.533 165.853 136.533C165.507 136.533 165.209 136.606 164.958 136.752C164.712 136.893 164.509 137.089 164.349 137.34C164.19 137.586 164.071 137.873 163.994 138.201C163.921 138.525 163.885 138.871 163.885 139.24ZM171.13 142.33C171.13 142.116 171.197 141.936 171.329 141.79C171.465 141.64 171.661 141.564 171.917 141.564C172.172 141.564 172.365 141.64 172.498 141.79C172.634 141.936 172.703 142.116 172.703 142.33C172.703 142.54 172.634 142.717 172.498 142.863C172.365 143.009 172.172 143.082 171.917 143.082C171.661 143.082 171.465 143.009 171.329 142.863C171.197 142.717 171.13 142.54 171.13 142.33Z" fill="white"/>
</g>
<path fill-rule="evenodd" clip-rule="evenodd" d="M59.0002 68.64C77.9546 68.64 93.3202 53.2744 93.3202 34.32C93.3202 15.3656 77.9546 0 59.0002 0C40.0458 0 24.6802 15.3656 24.6802 34.32C24.6802 44.9926 29.5517 54.5274 37.1925 60.822C37.2047 60.832 37.1939 60.8515 37.1789 60.8464C37.1698 60.8433 37.1602 60.8501 37.1602 60.8598V71.5042C37.1602 74.4834 40.3004 76.4171 42.9607 75.076L54.9722 69.0212C55.6356 68.6867 56.3788 68.5494 57.1207 68.5894C57.743 68.623 58.3696 68.64 59.0002 68.64Z" fill="#004440"/>
<path fill-rule="evenodd" clip-rule="evenodd" d="M70.3012 24.3464C71.3603 25.1585 71.5625 26.6745 70.7531 27.7357L58.7428 43.4829C58.3193 44.0382 57.6774 44.3832 56.9817 44.4295C56.2861 44.4758 55.6044 44.2189 55.1114 43.7246L47.4884 36.0815C46.5456 35.1363 46.5456 33.6064 47.4884 32.6612C48.4346 31.7124 49.9715 31.7124 50.9177 32.6612L56.5784 38.3368L66.9033 24.7994C67.7155 23.7344 69.2382 23.5314 70.3012 24.3464Z" fill="white"/>
</g>
<defs>
<clipPath id="clip0_204_762">
<rect width="438" height="174" fill="white"/>
</clipPath>
<clipPath id="clip1_204_762">
<rect y="42" width="438" height="132" rx="32" fill="white"/>
</clipPath>
</defs>
</svg>
